<svg xmlns="http://www.w3.org/2000/svg" viewBox="0 0 24 24"><path fill="#303c42" d="M12 0C5.383 0 0 5.383 0 12s5.383 12 12 12c3.205 0 6.219-1.248 8.485-3.515a.5.5 0 0 0-.707-.707A10.925 10.925 0 0 1 12 23C5.935 23 1 18.065 1 12S5.935 1 12 1s11 4.935 11 11v1.5c0 1.378-1.121 2.5-2.5 2.5H19v-.743c0-.674-.549-1.222-1.223-1.222-.829 0-1.645-.13-2.416-.384-.433-.15-.925-.034-1.2.247l-1.486 1.123c-1.712-.926-2.783-1.997-3.696-3.695l1.078-1.435c.325-.325.442-.8.302-1.247a7.699 7.699 0 0 1-.386-2.422C9.973 5.548 9.424 5 8.75 5H6.223C5.549 5 5 5.548 5 6.222 5 13.268 10.731 19 17.777 19c.674 0 1.223-.548 1.223-1.222V17h1.5c1.93 0 3.5-1.57 3.5-3.5V12c0-6.617-5.383-12-12-12z"/><path fill="#4fc3f7" d="M18 17.778c0 .12-.102.222-.223.222C11.283 18 6 12.716 6 6.222c0-.12.102-.222.223-.222H8.75c.121 0 .223.102.223.222 0 .939.146 1.86.434 2.728.013.041.033.144-.103.286L7.99 10.977a.5.5 0 0 0-.046.528c1.085 2.133 2.403 3.451 4.552 4.552a.502.502 0 0 0 .529-.046l1.792-1.36a.218.218 0 0 1 .227-.052c.878.29 1.798.437 2.734.437.121 0 .223.102.223.222v2.52z"/><path fill="#fff" d="M12.995 16.556a.502.502 0 0 0 .529-.046l1.792-1.36a.218.218 0 0 1 .227-.052c.79.261 1.617.389 2.457.415v-.256a.225.225 0 0 0-.223-.222 8.697 8.697 0 0 1-2.734-.437.223.223 0 0 0-.227.052l-1.792 1.36a.502.502 0 0 1-.529.046c-.952-.488-1.735-1.024-2.413-1.65.784.851 1.717 1.537 2.913 2.15zM6.5 6.722c0-.12.102-.222.223-.222h2.272c-.003-.093-.022-.184-.022-.278A.226.226 0 0 0 8.75 6H6.223A.226.226 0 0 0 6 6.222c0 3.374 1.434 6.413 3.715 8.562A11.723 11.723 0 0 1 6.5 6.722z" opacity=".2"/><linearGradient id="a" x1="1.125" x2="22.728" y1="6.929" y2="17.003" gradientUnits="userSpaceOnUse"><stop offset="0" stop-color="#fff" stop-opacity=".2"/><stop offset="1" stop-color="#fff" stop-opacity="0"/></linearGradient><path fill="url(#a)" d="M12 0C5.383 0 0 5.383 0 12s5.383 12 12 12c3.205 0 6.219-1.248 8.485-3.515a.5.5 0 0 0-.707-.707A10.925 10.925 0 0 1 12 23C5.935 23 1 18.065 1 12S5.935 1 12 1s11 4.935 11 11v1.5c0 1.378-1.121 2.5-2.5 2.5H19v-.743c0-.674-.549-1.222-1.223-1.222-.829 0-1.645-.13-2.416-.384-.433-.15-.925-.034-1.2.247l-1.486 1.123c-1.712-.926-2.783-1.997-3.696-3.695l1.078-1.435c.325-.325.442-.8.302-1.247a7.699 7.699 0 0 1-.386-2.422C9.973 5.548 9.424 5 8.75 5H6.223C5.549 5 5 5.548 5 6.222 5 13.268 10.731 19 17.777 19c.674 0 1.223-.548 1.223-1.222V17h1.5c1.93 0 3.5-1.57 3.5-3.5V12c0-6.617-5.383-12-12-12z"/></svg>