<svg xmlns="http://www.w3.org/2000/svg" viewBox="0 0 24 24"><g data-name="Phone 3"><g data-name="&lt;Group&gt;"><g data-name="&lt;Group&gt;"><path fill="none" stroke="#303c42" stroke-linecap="round" stroke-linejoin="round" d="M8.39 11.28a9.11 9.11 0 0 0 4.33 4.33l1.74-1.31a.72.72 0 0 1 .74-.17 8.24 8.24 0 0 0 2.58.41.72.72 0 0 1 .72.72v2.52a.72.72 0 0 1-.72.72A12.28 12.28 0 0 1 5.5 6.22a.72.72 0 0 1 .72-.72h2.53a.72.72 0 0 1 .72.72 8.2 8.2 0 0 0 .41 2.58.72.72 0 0 1-.18.74Z" data-name="&lt;Path&gt;"/></g><path fill="none" stroke="#303c42" stroke-linecap="round" stroke-linejoin="round" d="M20.13 20.13A11.5 11.5 0 1 1 23.5 12v1.5a3 3 0 0 1-3 3h-2" data-name="&lt;Path&gt;"/></g></g></svg>